<?xml version="1.0" encoding="iso-8859-1"?>
<!-- Generator: Adobe Illustrator 19.0.0, SVG Export Plug-In . SVG Version: 6.00 Build 0)  -->
<svg version="1.1" id="Capa_1" xmlns="http://www.w3.org/2000/svg" xmlns:xlink="http://www.w3.org/1999/xlink" x="0px" y="0px"
	 viewBox="0 0 480 480" style="enable-background:new 0 0 480 480;" xml:space="preserve">
<linearGradient id="SVGID_1_" gradientUnits="userSpaceOnUse" x1="-26.875" y1="558.105" x2="-26.875" y2="619.354" gradientTransform="matrix(8 0 0 -8 455 4941)">
	<stop  offset="0" style="stop-color:#006DF0"/>
	<stop  offset="1" style="stop-color:#00E7F0"/>
</linearGradient>
<path style="fill:url(#SVGID_1_);" d="M472,0H8C3.582,0,0,3.582,0,8v464c0,4.418,3.582,8,8,8h464c4.418,0,8-3.582,8-8V8
	C480,3.582,476.418,0,472,0z M16,16h448v48H16V16z M464,464H16V80h448V464z"/>
<g>
	
		<linearGradient id="SVGID_2_" gradientUnits="userSpaceOnUse" x1="-51.875" y1="558.105" x2="-51.875" y2="619.354" gradientTransform="matrix(8 0 0 -8 455 4941)">
		<stop  offset="0" style="stop-color:#006DF0"/>
		<stop  offset="1" style="stop-color:#00E7F0"/>
	</linearGradient>
	<path style="fill:url(#SVGID_2_);" d="M32,32h16v16H32V32z"/>
	
		<linearGradient id="SVGID_3_" gradientUnits="userSpaceOnUse" x1="-47.875" y1="558.105" x2="-47.875" y2="619.354" gradientTransform="matrix(8 0 0 -8 455 4941)">
		<stop  offset="0" style="stop-color:#006DF0"/>
		<stop  offset="1" style="stop-color:#00E7F0"/>
	</linearGradient>
	<path style="fill:url(#SVGID_3_);" d="M64,32h16v16H64V32z"/>
	
		<linearGradient id="SVGID_4_" gradientUnits="userSpaceOnUse" x1="-43.875" y1="558.105" x2="-43.875" y2="619.354" gradientTransform="matrix(8 0 0 -8 455 4941)">
		<stop  offset="0" style="stop-color:#006DF0"/>
		<stop  offset="1" style="stop-color:#00E7F0"/>
	</linearGradient>
	<path style="fill:url(#SVGID_4_);" d="M96,32h16v16H96V32z"/>
</g>
<g>
	
		<linearGradient id="SVGID_5_" gradientUnits="userSpaceOnUse" x1="-26.875" y1="558.105" x2="-26.875" y2="619.354" gradientTransform="matrix(8 0 0 -8 455 4941)">
		<stop  offset="0" style="stop-color:#006DF0"/>
		<stop  offset="1" style="stop-color:#00E7F0"/>
	</linearGradient>
	<path style="fill:url(#SVGID_5_);" d="M280,392h-80c-4.418,0-8-3.582-8-8v-64c0-4.418,3.582-8,8-8h80c4.418,0,8,3.582,8,8v64
		C288,388.418,284.418,392,280,392z M208,376h64v-48h-64V376z"/>
	
		<linearGradient id="SVGID_6_" gradientUnits="userSpaceOnUse" x1="-26.875" y1="558.105" x2="-26.875" y2="619.354" gradientTransform="matrix(8 0 0 -8 455 4941)">
		<stop  offset="0" style="stop-color:#006DF0"/>
		<stop  offset="1" style="stop-color:#00E7F0"/>
	</linearGradient>
	<path style="fill:url(#SVGID_6_);" d="M280,232h-80c-4.418,0-8-3.582-8-8v-64c0-4.418,3.582-8,8-8h80c4.418,0,8,3.582,8,8v64
		C288,228.418,284.418,232,280,232z M208,216h64v-48h-64V216z"/>
</g>
<g>
	
		<linearGradient id="SVGID_7_" gradientUnits="userSpaceOnUse" x1="-10.875" y1="558.105" x2="-10.875" y2="619.354" gradientTransform="matrix(8 0 0 -8 455 4941)">
		<stop  offset="0" style="stop-color:#006DF0"/>
		<stop  offset="1" style="stop-color:#00E7F0"/>
	</linearGradient>
	<path style="fill:url(#SVGID_7_);" d="M408,392h-80c-4.418,0-8-3.582-8-8v-64c0-4.418,3.582-8,8-8h80c4.418,0,8,3.582,8,8v64
		C416,388.418,412.418,392,408,392z M336,376h64v-48h-64V376z"/>
	
		<linearGradient id="SVGID_8_" gradientUnits="userSpaceOnUse" x1="-10.875" y1="558.105" x2="-10.875" y2="619.354" gradientTransform="matrix(8 0 0 -8 455 4941)">
		<stop  offset="0" style="stop-color:#006DF0"/>
		<stop  offset="1" style="stop-color:#00E7F0"/>
	</linearGradient>
	<path style="fill:url(#SVGID_8_);" d="M408,232h-80c-4.418,0-8-3.582-8-8v-64c0-4.418,3.582-8,8-8h80c4.418,0,8,3.582,8,8v64
		C416,228.418,412.418,232,408,232z M336,216h64v-48h-64V216z"/>
	
		<linearGradient id="SVGID_9_" gradientUnits="userSpaceOnUse" x1="-42.875" y1="558.105" x2="-42.875" y2="619.354" gradientTransform="matrix(8 0 0 -8 455 4941)">
		<stop  offset="0" style="stop-color:#006DF0"/>
		<stop  offset="1" style="stop-color:#00E7F0"/>
	</linearGradient>
	<path style="fill:url(#SVGID_9_);" d="M152,392H72c-4.418,0-8-3.582-8-8v-64c0-4.418,3.582-8,8-8h80c4.418,0,8,3.582,8,8v64
		C160,388.418,156.418,392,152,392z M80,376h64v-48H80V376z"/>
	
		<linearGradient id="SVGID_10_" gradientUnits="userSpaceOnUse" x1="-42.875" y1="558.105" x2="-42.875" y2="619.354" gradientTransform="matrix(8 0 0 -8 455 4941)">
		<stop  offset="0" style="stop-color:#006DF0"/>
		<stop  offset="1" style="stop-color:#00E7F0"/>
	</linearGradient>
	<path style="fill:url(#SVGID_10_);" d="M152,232H72c-4.418,0-8-3.582-8-8v-64c0-4.418,3.582-8,8-8h80c4.418,0,8,3.582,8,8v64
		C160,228.418,156.418,232,152,232z M80,216h64v-48H80V216z"/>
</g>
<g>
</g>
<g>
</g>
<g>
</g>
<g>
</g>
<g>
</g>
<g>
</g>
<g>
</g>
<g>
</g>
<g>
</g>
<g>
</g>
<g>
</g>
<g>
</g>
<g>
</g>
<g>
</g>
<g>
</g>
</svg>
